<svg width="378" height="290" viewBox="0 0 378 290" fill="none" xmlns="http://www.w3.org/2000/svg">
<path d="M114.225 126.5H48.5754C46.8402 126.5 45.4292 127.93 45.4292 129.7C45.4292 131.47 46.8402 132.9 48.5754 132.9H114.225C115.96 132.9 117.371 131.47 117.371 129.7C117.371 127.93 115.96 126.5 114.225 126.5Z" fill="#EFEFEF"/>
<path d="M328.837 126.5H263.187C261.452 126.5 260.041 127.93 260.041 129.7C260.041 131.47 261.452 132.9 263.187 132.9H328.837C330.572 132.9 331.983 131.47 331.983 129.7C331.983 127.93 330.572 126.5 328.837 126.5Z" fill="#EFEFEF"/>
<path d="M37.9861 132.9C39.7534 132.9 41.1861 131.467 41.1861 129.7C41.1861 127.933 39.7534 126.5 37.9861 126.5C36.2188 126.5 34.7861 127.933 34.7861 129.7C34.7861 131.467 36.2188 132.9 37.9861 132.9Z" fill="#EFEFEF"/>
<path d="M339.427 132.9C341.194 132.9 342.627 131.467 342.627 129.7C342.627 127.933 341.194 126.5 339.427 126.5C337.659 126.5 336.227 127.933 336.227 129.7C336.227 131.467 337.659 132.9 339.427 132.9Z" fill="#EFEFEF"/>
<path d="M58.4008 258.39H23.9708C23.0608 258.39 22.3208 259.82 22.3208 261.59C22.3208 263.36 23.0608 264.79 23.9708 264.79H58.4008C59.3108 264.79 60.0508 263.36 60.0508 261.59C60.0508 259.82 59.3108 258.39 58.4008 258.39Z" fill="#EFEFEF"/>
<path d="M353.441 258.39H319.011C318.101 258.39 317.361 259.82 317.361 261.59C317.361 263.36 318.101 264.79 319.011 264.79H353.441C354.351 264.79 355.091 263.36 355.091 261.59C355.091 259.82 354.351 258.39 353.441 258.39Z" fill="#EFEFEF"/>
<path d="M248.744 88.0596C249.114 87.2396 249.184 86.2896 249.414 85.3196C249.734 85.2996 250.084 85.2696 250.434 85.2696C253.904 85.2596 257.374 85.2396 260.844 85.2396C264.194 85.2396 266.354 82.9796 266.324 79.7196C266.284 75.2696 266.324 70.8196 266.344 66.3696C266.344 65.8996 266.394 65.4296 266.424 64.7696C267.284 64.7696 268.034 64.7596 268.784 64.7696C271.864 64.8296 273.584 62.0396 273.604 59.7696C273.634 55.7696 273.604 51.7596 273.604 47.7596C273.604 44.3096 272.184 42.8896 268.784 42.8596C268.004 42.8596 267.224 42.7896 266.344 42.7496C266.344 40.5796 266.414 38.5796 266.314 36.5896C266.274 35.7396 266.004 34.8396 265.614 34.0796C264.774 32.4296 263.204 31.9596 261.474 31.8996C259.704 31.8396 257.934 31.7996 256.104 31.7496C255.414 29.4196 253.954 27.9996 251.764 27.4396V21.1496H255.544C256.394 13.3696 254.314 6.86959 247.504 2.78959C241.844 -0.610406 236.054 -0.0604062 230.494 3.62959H222.904C217.624 -0.570406 210.284 -0.230406 205.304 3.64959C202.774 3.64959 200.234 3.64959 197.734 3.64959C191.984 -0.540406 185.204 -0.340406 179.894 3.64959H172.344C167.844 0.0395942 160.624 -0.770406 154.774 3.62959H146.794C146.484 3.41959 146.234 3.22959 145.974 3.06959C140.884 -0.0704062 135.654 -0.280406 130.444 2.64959C126.344 4.95959 123.824 8.57959 122.524 13.0896C121.754 15.7596 122.054 18.4396 122.084 21.2696H125.884V27.4196C124.914 27.9996 123.874 28.3996 123.134 29.1196C122.404 29.8296 121.974 30.8596 121.344 31.8496C120.744 31.8496 120.074 31.8396 119.414 31.8496C118.034 31.8796 116.654 31.8496 115.284 31.9796C113.304 32.1696 111.744 33.5696 111.534 35.5296C111.324 37.4196 111.384 39.3396 111.324 41.2496C111.304 41.7196 111.274 42.1896 111.244 42.7796C110.014 42.8396 108.914 42.8596 107.814 42.9496C105.564 43.1296 103.894 44.8096 103.864 47.0396C103.814 51.2696 103.734 55.4996 103.874 59.7196C103.984 62.9596 105.904 64.9796 109.104 64.7996C109.834 64.7596 110.574 64.7996 111.474 64.7996C111.474 70.0796 111.474 75.1496 111.474 80.2196C111.474 83.4496 113.964 85.3596 116.624 85.2796C119.954 85.1796 123.294 85.2496 126.634 85.2396C127.194 85.2396 127.754 85.2396 128.354 85.2396C128.404 85.5996 128.464 85.9096 128.494 86.2096C128.804 89.2396 130.634 90.8896 133.704 90.8996C135.214 90.8996 136.734 90.8996 138.244 90.8996C139.164 90.8996 140.084 90.8996 141.124 90.8996C141.124 91.3696 141.124 91.6696 141.124 91.9696C141.124 94.5896 141.144 97.2196 141.144 99.8496C141.144 106.97 141.154 114.09 141.144 121.21C141.144 122.3 141.544 123.09 142.474 123.64C142.894 123.89 143.304 124.16 143.734 124.39C148.814 127.05 153.894 129.7 158.974 132.36C166.414 136.26 173.844 140.17 181.284 144.07C183.724 145.35 186.164 146.61 188.654 147.9C190.094 147.18 191.374 146.57 192.634 145.91C206.534 138.53 220.424 131.14 234.334 123.78C235.804 123 236.454 122.01 236.444 120.31C236.394 111.1 236.424 101.89 236.444 92.6796C236.444 92.1196 236.504 91.5696 236.544 90.8996H238.154C240.244 90.8996 242.334 90.9296 244.424 90.8996C246.424 90.8596 247.934 89.9296 248.764 88.1096L248.744 88.0596ZM264.294 47.1996H269.014V54.6796H264.294V47.1996ZM256.244 70.3296V69.0796H261.804C261.824 69.5196 261.844 69.8596 261.864 70.3296H256.244ZM256.244 67.5196V66.1496H261.804V67.5196H256.244ZM261.844 36.1896V64.7796H255.974C255.884 55.1996 255.924 45.7296 255.914 36.1896H261.844ZM113.334 54.5496H108.614V47.1496H113.334V54.5496ZM116.134 36.1696H121.794V64.7496H116.004C115.554 63.1196 115.654 37.4796 116.124 36.1696H116.134ZM121.654 70.3796H116.004V69.0896H121.654V70.3796ZM116.024 67.5396V66.1296H121.744C121.764 66.5796 121.784 66.9996 121.804 67.5396H116.014H116.024ZM248.594 70.6796V68.4496C248.854 68.5396 249.024 68.5996 249.304 68.6996C249.514 68.3196 249.724 67.9196 250.094 67.2596C250.294 67.8096 250.444 68.1896 250.624 68.6896C250.814 68.5496 250.974 68.4296 251.294 68.1996C251.444 69.0396 251.574 69.7896 251.734 70.6796H248.594ZM248.164 12.3996C248.554 12.3996 248.954 12.3996 249.484 12.3996C249.564 12.8596 249.614 13.1496 249.654 13.3696C249.254 13.9296 244.494 13.8196 243.544 13.2896C243.554 12.6096 243.994 12.4196 244.584 12.4096C245.774 12.4096 246.974 12.4096 248.164 12.3996ZM232.894 17.7196C234.424 17.6596 235.824 17.3796 237.174 17.8796C238.704 18.4496 240.234 18.4896 241.724 17.9196C243.164 17.3696 244.574 17.6296 246.244 17.6296C243.604 21.0496 236.354 21.4896 232.894 17.7196ZM242.284 23.9096V26.8496H237.054V23.9096H242.284ZM207.464 17.6396C209.024 17.6796 210.414 17.5196 211.874 17.8896C213.074 18.1896 214.474 18.3196 215.634 17.9896C217.234 17.5396 218.774 17.7596 220.414 17.6196C218.594 20.8796 210.734 21.7096 207.464 17.6396ZM216.734 23.9196V26.8796H211.404V23.9196H216.734ZM182.134 17.6896C183.644 17.6896 184.864 17.4696 186.124 17.9096C187.614 18.4296 189.154 18.5796 190.674 17.9496C192.084 17.3596 193.524 17.6296 195.034 17.6696C193.334 20.7796 185.444 21.7096 182.134 17.6996V17.6896ZM191.324 23.9296V26.8596H186.024V23.9296H191.324ZM156.924 17.7396C158.384 17.6696 159.694 17.4496 161.024 17.8996C162.674 18.4596 164.274 18.3996 165.974 17.8996C167.204 17.5396 168.574 17.6696 169.874 17.5796C169.894 17.6896 169.904 17.7996 169.924 17.9196C166.624 21.3596 159.544 21.0796 156.924 17.7496V17.7396ZM166.024 23.9296V26.8496H160.874V23.9296H166.024ZM131.514 17.6996C131.554 17.5896 131.594 17.4696 131.634 17.3596C133.264 17.6396 134.884 18.0396 136.524 18.1696C137.814 18.2696 139.184 18.2096 140.424 17.8796C141.714 17.5296 142.924 17.5896 144.224 17.6696C142.414 21.1596 133.724 21.5696 131.514 17.7096V17.6996ZM140.364 23.9096V26.9396H135.074V23.9096H140.364ZM142.344 13.5396C142.494 13.1196 142.614 12.7796 142.734 12.4396H158.984C159.134 12.7096 159.314 13.0296 159.604 13.5396H142.354H142.344ZM142.634 10.0996H159.114V11.2096H142.914C142.854 10.9496 142.764 10.6096 142.644 10.0996H142.634ZM168.194 13.5996C168.114 13.5996 168.034 13.5396 167.834 13.4696C167.954 13.1296 168.074 12.7896 168.224 12.3696H171.584C175.354 12.3696 179.134 12.3696 182.904 12.3696C183.494 12.3696 184.184 12.2196 184.544 13.2096C184.124 13.3396 183.744 13.5496 183.364 13.5596C178.304 13.5896 173.244 13.5896 168.184 13.5896L168.194 13.5996ZM168.304 10.0196H184.064V11.0996C183.394 11.1796 182.744 11.3096 182.104 11.3096C177.924 11.3396 173.754 11.3396 169.574 11.3296C168.384 11.3296 168.284 11.1996 168.304 10.0096V10.0196ZM192.514 13.3296C192.694 13.0296 192.864 12.7496 193.024 12.4896C193.274 12.4596 193.444 12.4196 193.624 12.4196C198.374 12.4196 203.134 12.4196 207.884 12.4196C208.564 12.4196 209.234 12.4196 209.484 13.3796C207.974 13.7796 193.614 13.7496 192.514 13.3396V13.3296ZM192.704 10.3896C192.904 10.2096 192.984 10.0696 193.094 10.0496C193.444 9.99959 193.794 9.96959 194.144 9.96959C198.584 9.96959 203.034 9.96959 207.474 9.96959C207.954 9.96959 208.434 9.96959 209.124 9.96959C209.034 10.5396 208.984 10.8696 208.924 11.2696H193.134C193.014 11.0196 192.854 10.6996 192.704 10.3896ZM217.624 13.4196C217.704 13.1296 217.794 12.8396 217.884 12.5096C218.214 12.4696 218.514 12.3996 218.814 12.3896C223.834 12.3896 228.864 12.3896 233.884 12.3896C234.504 12.3896 235.184 12.3096 235.154 13.2696C234.124 13.7196 219.554 13.8396 217.634 13.4196H217.624ZM217.954 10.0496H234.794C235.014 10.9296 234.674 11.3096 233.904 11.3396C233.284 11.3696 232.664 11.3596 232.044 11.3596C227.914 11.3596 223.784 11.3496 219.654 11.3396C219.174 11.3396 218.694 11.3396 218.124 11.3396C218.054 10.8496 218.004 10.4896 217.954 10.0496ZM137.034 4.86959C139.944 4.56959 142.304 5.80959 144.304 7.79959H156.574C158.244 6.84959 159.594 5.83959 161.094 5.27959C163.744 4.28959 166.284 4.89959 168.464 6.63959C169.574 7.51959 170.694 7.88959 172.104 7.85959C175.434 7.77959 178.774 7.82959 182.044 7.82959C186.064 4.17959 190.764 3.58959 195.234 7.78959H207.144C208.434 7.00959 209.574 6.22959 210.774 5.59959C213.484 4.16959 216.194 4.51959 218.534 6.28959C220.144 7.50959 221.744 7.91959 223.684 7.84959C226.744 7.74959 229.814 7.81959 232.834 7.81959C238.264 3.66959 243.974 4.06959 247.354 8.98959H241.374C241.314 9.06959 241.254 9.15959 241.194 9.23959C241.964 10.0496 242.074 10.9896 241.814 11.9296C241.694 12.3696 241.374 12.8196 241.024 13.1196C240.214 13.8096 238.444 13.6696 237.534 12.9196C236.514 12.0696 236.474 11.0896 237.394 9.32959C236.304 8.81959 216.914 8.81959 215.664 9.35959C216.454 11.2596 216.374 12.1396 215.384 12.9296C214.514 13.6296 213.044 13.7296 212.124 13.1496C210.984 12.4296 210.864 11.6696 211.614 9.13959C204.564 8.79959 197.584 9.04959 190.454 8.97959C191.184 10.6696 191.524 12.1996 189.774 13.2996C188.924 13.8296 187.514 13.6696 186.764 13.0296C185.804 12.2096 185.704 11.0096 186.454 9.25959C185.404 8.88959 167.694 8.78959 165.474 9.16959C166.454 10.7196 166.804 12.2396 164.864 13.2796C163.784 13.8596 162.564 13.6696 161.784 12.8796C160.874 11.9596 160.834 10.9896 161.744 9.10959C154.494 8.79959 147.344 9.02959 140.324 8.99959C140.434 10.1196 140.634 11.0596 140.554 11.9796C140.514 12.4096 139.984 12.8596 139.574 13.1696C138.704 13.8196 137.294 13.7296 136.464 13.0496C135.414 12.1896 135.294 11.1996 136.094 9.07959H130.414C130.384 8.94959 130.354 8.80959 130.314 8.67959C132.024 6.51959 134.244 5.14959 137.044 4.85959L137.034 4.86959ZM128.214 12.4796H133.624C133.754 12.7896 133.884 13.0896 133.984 13.3196C133.634 13.8396 128.814 13.7896 127.814 13.3496C127.944 13.0696 128.074 12.7996 128.224 12.4696L128.214 12.4796ZM129.624 30.4696C131.314 30.4296 133.004 30.4496 134.694 30.4496C170.054 30.4196 205.414 30.3996 240.774 30.3796C243.264 30.3796 245.754 30.4196 248.244 30.4696C249.924 30.4996 251.264 31.5396 251.514 33.1196C209.844 33.1596 168.204 33.1896 126.494 33.1496C126.864 31.5396 128.134 30.4996 129.614 30.4596L129.624 30.4696ZM153.434 48.8896C152.914 48.7996 152.374 48.7896 151.844 48.7896C144.054 48.7896 136.274 48.7896 128.484 48.7896C127.734 48.7896 126.944 48.9196 126.334 48.0196L126.404 46.9696C126.744 46.8196 127.014 46.6096 127.294 46.5896C128.134 46.5196 128.984 46.4896 129.824 46.4796C137.164 46.4496 144.504 46.4196 151.854 46.3896C152.204 46.3896 152.554 46.3396 152.874 46.3196C153.464 45.8096 153.834 45.2696 153.524 44.5396C153.214 43.7996 152.574 43.4996 151.804 43.4996C150.074 43.4796 148.334 43.4996 146.594 43.4996C140.544 43.4996 134.494 43.5196 128.434 43.5196C128.034 43.5196 127.624 43.5496 127.234 43.4596C126.664 43.3296 126.194 42.9196 126.364 42.3296C126.474 41.9796 126.964 41.6696 127.354 41.4896C127.654 41.3496 128.054 41.4496 128.414 41.4496C136.424 41.4396 144.434 41.4496 152.444 41.3896C153.194 41.3896 154.024 41.1496 154.674 40.7596C155.044 40.5396 155.364 39.7296 155.234 39.3196C155.104 38.8996 154.454 38.5796 153.964 38.3696C153.624 38.2196 153.174 38.3296 152.774 38.3296C144.674 38.3296 136.574 38.3296 128.474 38.3296C127.994 38.3296 127.434 38.3896 127.044 38.1796C126.684 37.9896 126.334 37.4796 126.304 37.0896C126.284 36.7796 126.704 36.2996 127.044 36.1496C127.514 35.9496 128.084 35.9396 128.614 35.9396C137.604 35.9396 146.594 35.9296 155.584 35.9696C156.514 35.9696 157.454 36.3196 158.774 36.5896C160.214 35.7896 162.124 35.0496 164.274 35.0996C166.414 35.1496 168.374 35.7296 170.194 37.0096C171.064 35.8996 172.234 35.8896 173.464 35.8896C182.494 35.9096 191.534 35.8896 200.564 35.8896C201.724 35.8896 202.874 35.9496 204.034 35.9296C205.254 35.9096 206.434 36.0096 207.364 36.8796C211.434 34.2996 215.454 34.5496 219.164 36.6996C220.314 36.3996 221.214 36.1196 222.134 35.9496C222.744 35.8396 223.374 35.8996 224.004 35.8996C232.104 35.8996 240.204 35.8996 248.304 35.9096C249.104 35.9096 249.904 35.9796 250.704 36.0596C251.294 36.1196 251.724 36.4196 251.754 37.0596C251.784 37.7496 251.354 38.1396 250.724 38.2496C250.294 38.3296 249.834 38.3096 249.394 38.3096C241.204 38.3096 233.014 38.2996 224.834 38.2896H223.404C223.104 38.5296 222.764 38.7996 222.464 39.0396C222.384 40.2196 222.694 40.8296 223.674 41.1696C224.244 41.3696 224.894 41.4096 225.504 41.4096C233.604 41.4096 241.704 41.3896 249.804 41.3896C250.434 41.3896 251.064 41.5296 251.884 41.6196C251.734 42.3396 251.634 42.8196 251.524 43.3796C250.784 43.4196 250.174 43.4796 249.564 43.4796C242.134 43.4796 234.704 43.4796 227.274 43.4796C226.744 43.4796 226.204 43.4596 225.674 43.5196C224.564 43.6396 224.154 44.1096 224.014 45.4196C224.654 46.3496 225.564 46.3296 226.454 46.3296C232.864 46.3396 239.274 46.3496 245.674 46.3696C247.184 46.3696 248.694 46.4096 250.214 46.4596C250.644 46.4696 251.074 46.5696 251.424 46.6096C251.994 47.9896 251.654 48.6296 250.394 48.7296C249.954 48.7696 249.504 48.7496 249.064 48.7496C241.094 48.7496 233.134 48.7496 225.164 48.7496C224.604 48.7496 223.994 48.7996 223.484 49.0096C222.844 49.2796 222.434 49.8496 222.564 50.6196C222.694 51.3896 223.254 51.7296 223.964 51.8296C224.404 51.8896 224.854 51.8596 225.294 51.8596C233.434 51.8596 241.584 51.8596 249.724 51.8596C250.364 51.8596 251.004 51.9796 251.574 52.0296C251.964 53.6296 251.634 54.0396 250.104 54.0396C244.894 54.0396 239.694 54.0296 234.484 54.0196C230.304 54.0196 226.114 54.0496 221.934 54.0196C221.164 54.0196 220.404 53.7996 219.384 53.6396C215.524 56.2096 211.404 55.9296 207.504 53.6696C206.354 53.8096 205.404 54.0096 204.464 54.0096C194.054 54.0396 183.634 54.0396 173.224 54.0196C172.274 54.0196 171.334 53.8496 169.994 53.7296C166.314 56.1296 162.224 56.0296 158.274 53.6196C157.474 53.7696 156.794 53.9996 156.124 54.0096C146.914 54.0396 137.704 54.0396 128.494 54.0496C128.054 54.0496 127.594 54.0696 127.174 53.9596C126.624 53.8096 126.154 53.3896 126.354 52.7896C126.484 52.4196 126.934 52.0796 127.324 51.9096C127.664 51.7596 128.114 51.8696 128.514 51.8696C136.704 51.8696 144.894 51.8696 153.074 51.8696C153.514 51.8696 153.964 51.8696 154.494 51.8696C154.784 51.4396 155.074 51.0196 155.284 50.6996C155.074 49.4996 154.374 49.0196 153.434 48.8496V48.8896ZM128.894 70.6396H125.904V67.7596C126.834 67.6496 127.674 67.5396 128.374 67.4596C129.564 68.5196 128.874 69.5696 128.884 70.6496L128.894 70.6396ZM132.684 65.5596C133.414 65.6896 133.904 65.7796 134.584 65.8996C134.384 65.4996 134.274 65.2896 134.084 64.9196C134.574 65.1196 134.924 65.2596 135.474 65.4896V86.2096H132.604C132.454 79.2596 132.394 72.4296 132.684 65.5596ZM152.154 75.7396C149.194 72.7496 146.214 69.7796 143.264 66.7796C142.744 66.2496 142.324 65.6296 141.704 64.8596H142.714C142.854 65.1396 143.004 65.4396 143.194 65.8296C143.594 65.7996 144.084 65.9096 144.344 65.7196C145.224 65.0696 145.834 65.5896 146.394 66.1096C149.314 68.8096 152.204 71.5496 155.114 74.2696C155.404 74.5396 155.694 74.8096 155.984 75.0896H157.414C158.434 73.9896 158.484 73.4896 157.534 72.4296C155.904 70.6096 154.214 68.8496 152.554 67.0496C152.264 66.7296 152.004 66.3796 151.734 66.0396C152.294 65.7696 152.774 65.5296 153.424 65.2096C153.714 65.2796 154.214 65.3996 154.754 65.5296C157.614 68.1296 160.774 70.4996 162.874 73.8796C164.494 76.4796 166.064 79.1096 167.624 81.7496C172.264 89.5896 176.894 97.4296 181.524 105.28C182.154 106.34 182.744 107.42 183.324 108.46C181.784 109.58 180.354 110.62 178.824 111.73C178.154 110.57 177.474 109.35 176.774 108.14C174.074 103.44 171.404 98.7196 168.644 94.0496C166.084 89.7096 162.354 87.0296 157.264 86.3996C156.644 86.3196 156.044 86.1796 155.424 86.0796C152.634 85.6096 150.534 84.2196 149.024 81.7596C148.254 80.5096 147.134 79.4596 146.094 78.3896C144.464 76.7096 142.694 75.1696 141.114 73.4396C139.444 71.6096 139.514 71.5496 140.044 68.8596C140.544 69.2296 141.014 69.5196 141.414 69.8896C144.264 72.5496 147.114 75.2096 149.944 77.8896C151.014 78.8996 151.914 79.1396 152.594 78.5096C153.314 77.8396 153.164 76.7396 152.134 75.7096L152.154 75.7396ZM196.244 64.6896C199.234 66.2596 201.054 68.6196 202.944 70.9496C202.164 72.5896 201.434 74.1296 200.664 75.7396C200.044 73.7896 199.704 71.8596 198.814 70.2196C197.914 68.5696 196.464 67.2196 195.254 65.7396L195.334 65.5696C195.794 65.7596 196.254 65.9396 196.894 66.1996C196.694 65.7196 196.534 65.3396 196.254 64.6796L196.244 64.6896ZM197.244 76.5196C197.344 81.2996 193.804 85.7896 188.354 85.8496C182.664 85.9096 179.014 81.5396 179.194 76.8996C178.954 71.6296 183.494 67.6996 188.084 67.6096C192.674 67.5196 197.144 71.7996 197.244 76.5196ZM190.954 92.0096C190.214 93.7796 189.124 95.3096 188.204 96.9696C187.144 95.3396 186.144 93.7196 185.344 92.0096H190.954ZM177.644 69.8996C176.504 71.6296 175.914 73.5496 175.344 75.6596C174.714 74.3996 174.084 73.1396 173.424 71.8296C174.354 68.8496 176.474 66.8596 178.724 65.2996H181.684C181.734 65.3996 181.794 65.4996 181.844 65.5996C180.204 66.8096 178.764 68.2096 177.644 69.8996ZM181.384 92.2096C183.404 95.6096 185.354 99.0496 187.334 102.47C187.574 102.88 187.854 103.27 188.204 103.8C188.954 102.47 189.634 101.28 190.304 100.1C195.214 91.4396 200.124 82.7796 205.044 74.1196C206.644 71.2996 208.614 68.7696 211.114 66.6596C211.584 66.2696 211.954 65.7596 212.404 65.2796H213.554C213.594 65.1196 213.644 64.9596 213.724 64.6596C214.064 65.0796 214.334 65.3996 214.534 65.6396C214.904 65.4496 215.274 65.2596 215.644 65.0696C215.704 65.1396 215.764 65.2096 215.814 65.2796C215.664 65.5096 215.534 65.7696 215.344 65.9696C211.714 69.6796 208.814 73.8896 206.324 78.4396C201.414 87.4096 196.344 96.2796 191.344 105.19C190.844 106.08 190.394 106.99 189.904 107.92H186.574C185.394 105.85 184.224 103.76 183.004 101.7C179.464 95.6896 175.894 89.6996 172.344 83.6896C170.724 80.9396 169.124 78.1696 167.534 75.3896C165.474 71.7796 162.794 68.6296 159.994 65.4096C160.244 65.1996 160.414 65.0696 160.594 64.9196C160.724 65.1296 160.824 65.2896 160.944 65.4796C161.084 65.3096 161.194 65.1796 161.364 64.9696C161.534 65.1496 161.684 65.3196 161.814 65.4596C162.494 65.5096 163.134 65.5596 163.754 65.6096C166.294 67.9396 168.384 70.5596 170.124 73.4696C173.864 79.7196 177.644 85.9496 181.364 92.2096H181.384ZM148.494 121.3C147.584 120.8 146.764 120.34 146.074 119.95V94.6896C147.284 95.3596 147.274 96.5496 148.074 97.5596C147.984 97.0196 147.944 96.7596 147.884 96.3596C148.124 96.4696 148.304 96.5596 148.504 96.6496V121.29L148.494 121.3ZM153.594 123.89C152.654 123.37 151.824 122.92 151.034 122.49C150.674 121.24 150.884 102.74 151.134 102.19V97.7296C151.664 97.9096 152.224 98.0996 152.904 98.3396C152.814 98.4896 152.724 98.6396 152.584 98.8896C152.844 99.2196 153.174 99.6496 153.594 100.19V123.89ZM155.944 125.33V98.8196C156.674 99.0996 157.114 99.2596 157.614 99.4496C158.384 108.35 157.804 117.21 158.044 126.36C157.154 125.93 156.514 125.61 155.944 125.33ZM155.044 92.5896C150.694 92.0296 147.364 89.8796 144.774 86.3696C143.274 84.3396 141.504 82.5196 139.754 80.4996V77.0396C140.994 78.1096 142.024 79.0496 143.114 79.9196C145.144 81.5496 146.524 83.7496 148.184 85.6996C149.644 87.4196 151.514 88.4696 153.764 88.8196C154.504 88.9296 155.244 89.1096 155.984 89.2396C160.354 90.0196 163.704 92.3096 166.014 96.0796C167.824 99.0296 169.554 102.04 171.294 105.03C173.144 108.22 174.974 111.42 176.774 114.55C176.204 116.04 175.684 117.4 175.184 118.72C173.574 115.88 171.934 112.99 170.294 110.1C168.054 106.16 165.774 102.24 163.564 98.2896C161.684 94.9196 158.824 93.0796 155.054 92.5896H155.044ZM167.364 131.3C166.524 130.77 165.684 130.24 164.804 129.69C164.904 123.5 165.004 117.43 165.104 111.13C165.894 112.26 166.544 113.2 167.424 114.46C167.504 119.74 167.594 125.41 167.684 131.08C167.574 131.15 167.464 131.22 167.364 131.3ZM172.594 133.86C171.664 133.34 170.824 132.88 170.064 132.45V120.15C170.144 120.13 170.224 120.11 170.304 120.09C171.034 121.1 171.774 122.1 172.594 123.23V133.86ZM178.534 137.08C177.294 136.43 176.194 135.84 175.094 135.26V127.92C176.254 129.36 177.294 130.65 178.534 132.19V137.08ZM188.834 142.39C186.154 141.07 183.684 139.86 181.244 138.67V133.58C182.394 134.17 183.484 134.74 184.704 135.37C185.804 135.54 187.064 135.74 188.724 135.99C190.144 135.64 192.004 135.19 193.514 134.82C194.534 134.26 195.284 133.85 196.114 133.39C196.234 135.1 196.354 136.76 196.474 138.5C193.854 139.84 191.334 141.12 188.834 142.39ZM188.514 130.46C182.834 130.41 179.004 126.35 178.794 121.02C178.584 115.58 182.844 111.47 188.344 111.42C193.464 111.37 197.774 115.62 197.814 120.75C197.854 126.23 193.844 130.5 188.514 130.46ZM198.224 111.98C196.504 110.82 194.844 109.71 193.074 108.52C193.414 107.85 193.714 107.17 194.084 106.52C199.504 96.9696 204.974 87.4596 210.324 77.8696C212.144 74.5996 214.344 71.7196 217.214 69.3096C218.224 68.4596 219.054 67.3896 220.044 66.5096C220.804 65.8296 221.684 65.2896 222.514 64.6796C222.604 64.7596 222.694 64.8396 222.784 64.9296C222.734 65.1796 222.684 65.4196 222.624 65.7496H223.944C223.974 65.4696 224.004 65.2396 224.044 64.8896C224.224 65.0896 224.334 65.1696 224.374 65.2796C224.704 66.0196 224.154 66.4496 223.744 66.8896C222.294 68.4496 220.804 69.9796 219.364 71.5496C218.774 72.1896 218.264 72.9096 217.684 73.6296C218.054 74.1896 218.334 74.6196 218.604 75.0296H220.314C223.644 71.8596 226.964 68.6996 230.314 65.5196C230.774 65.8496 231.054 66.0396 231.344 66.2496C231.754 66.0296 232.174 65.7996 232.654 65.5296C232.974 65.7596 233.274 65.9896 233.634 66.2496C233.344 66.6896 233.154 67.0996 232.854 67.3996C230.214 70.0696 227.554 72.7096 224.924 75.3796C224.524 75.7796 224.184 76.2596 223.894 76.7596C223.544 77.3596 223.624 77.9596 224.164 78.4396C224.694 78.9096 225.304 78.9696 225.894 78.6296C226.314 78.3896 226.674 78.0496 227.034 77.7196C229.804 75.1196 232.564 72.4896 235.354 69.9096C235.814 69.4796 236.424 69.2196 237.104 68.7896C237.244 69.8196 237.624 70.6496 236.734 71.3196C236.904 71.3896 237.054 71.4496 237.244 71.5196C237.184 71.6696 237.164 71.8196 237.084 71.9096C234.624 74.4696 232.134 76.9996 229.694 79.5796C228.874 80.4396 228.014 81.3296 227.434 82.3496C226.034 84.7996 223.824 85.7396 221.224 86.1796C219.664 86.4496 218.094 86.7696 216.574 87.2096C213.174 88.1796 210.584 90.2996 208.824 93.3096C205.384 99.2196 202.064 105.2 198.694 111.15C198.544 111.41 198.404 111.68 198.234 111.98H198.224ZM202.154 135.32C201.084 135.92 200.104 136.47 198.944 137.12V131.82C200.064 130.37 201.064 129.08 202.194 127.61C202.274 130.23 202.354 132.76 202.154 135.32ZM207.284 132.61C206.604 133.03 205.704 133.57 204.684 134.2V123.48C205.594 122.08 206.264 121.05 206.944 120.01C207.064 120.04 207.174 120.07 207.294 120.1V132.6L207.284 132.61ZM209.724 131.59C209.724 128.36 209.704 125.42 209.724 122.48C209.754 119.74 209.834 116.99 209.894 114.16C210.124 114.05 210.434 113.9 210.744 113.75C210.694 113.69 210.654 113.63 210.604 113.56C211.074 112.79 211.554 112.02 212.114 111.1C212.554 117.49 212.464 123.63 212.484 129.85C211.654 130.38 210.834 130.89 209.714 131.59H209.724ZM219.424 126.27C219.204 117.58 219.444 109.17 219.674 100.73C219.944 100.54 220.204 100.35 220.544 100.11C220.214 99.9896 220.014 99.9196 219.804 99.8496C219.784 99.7596 219.764 99.6596 219.734 99.5696C220.234 99.3296 220.734 99.0896 221.554 98.6896C221.644 107.58 221.734 116.15 221.824 124.83C221.074 125.28 220.374 125.7 219.424 126.27ZM223.784 123.93C223.904 115.72 224.014 107.83 224.124 100.01C224.414 99.7996 224.604 99.6496 225.034 99.3296C224.754 99.0496 224.554 98.8496 224.274 98.5596C224.834 98.3296 225.524 98.0396 226.474 97.6396C226.624 105.92 226.774 114.12 226.924 122.33C225.924 122.84 225.024 123.3 223.784 123.93ZM231.484 119.75C230.794 120.16 229.974 120.65 228.914 121.29C228.914 120.51 228.914 119.99 228.914 119.48C228.934 112.86 228.944 106.24 228.964 99.6196C228.964 98.9696 228.974 98.3196 228.964 97.6696C228.954 96.9596 229.154 96.3896 229.764 95.9496C230.294 95.5696 230.754 95.0996 231.494 94.4496V119.75H231.484ZM236.784 81.2796C235.724 82.4596 234.664 83.6496 233.634 84.8696C232.774 85.8896 231.964 86.9396 231.134 87.9896C229.124 90.5396 226.414 91.7796 223.294 92.3296C221.994 92.5596 220.664 92.7996 219.424 93.2296C216.194 94.3396 214.264 96.8196 212.684 99.7096C209.264 105.99 205.764 112.24 202.294 118.49C202.124 118.79 201.914 119.07 201.634 119.49C201.114 117.86 200.654 116.43 200.174 114.96C202.464 110.85 204.754 106.68 207.084 102.54C208.304 100.37 209.544 98.2096 210.834 96.0796C213.234 92.0796 216.844 89.8896 221.404 89.2496C225.304 88.7096 228.404 87.0596 230.584 83.6196C232.244 80.9996 234.814 79.1796 237.374 76.9296C237.544 78.6396 237.904 80.0296 236.784 81.2796ZM131.854 60.2196C130.184 60.2196 128.554 60.1496 127.194 58.9996C126.714 58.5896 126.224 58.1796 126.514 57.1996C127.014 57.1496 127.594 57.0296 128.184 57.0296C139.574 57.0196 150.964 57.0096 162.354 57.0196C189.814 57.0196 217.264 57.0196 244.724 57.0396C246.504 57.0396 248.284 57.0696 250.064 57.1096C250.584 57.1196 251.094 57.2096 251.604 57.2596C251.464 58.6696 250.684 59.5696 249.284 59.9396C248.604 60.1196 247.884 60.2196 247.184 60.2196C208.734 60.2196 170.294 60.2196 131.844 60.2196H131.854ZM241.964 64.9896C242.174 65.1796 242.344 65.3396 242.694 65.6596C242.864 65.3296 243.024 65.0096 243.184 64.7096C243.784 64.9796 244.194 65.1696 244.734 65.4096C244.794 72.2696 244.844 79.1896 244.654 86.2096H242.014C241.524 84.4996 241.484 69.1496 241.954 64.9896H241.964Z" fill="#EFEFEF"/>
<path d="M213.254 52.1694C217.314 52.1894 220.474 49.2394 220.504 45.4094C220.534 41.6794 217.244 38.3594 213.354 38.4394C209.624 38.5194 206.394 41.1894 206.394 45.5294C206.394 49.1594 210.094 52.4094 213.264 52.1694H213.254ZM213.174 42.7294C214.724 42.5294 215.634 43.3394 216.164 45.3894C215.684 47.2694 214.684 48.1194 213.174 47.9194C211.934 47.7594 210.864 46.5994 210.834 45.3894C210.804 44.1194 211.884 42.8894 213.164 42.7294H213.174Z" fill="#EFEFEF"/>
<path d="M164.274 52.2198C167.564 52.1098 171.214 49.5198 171.174 45.6298C171.124 41.7098 168.414 38.4898 164.284 38.5698C160.334 38.5698 157.164 41.6798 157.194 45.5098C157.224 49.0598 160.574 52.3398 164.274 52.2198ZM164.174 42.5998C165.564 42.6198 166.784 43.9798 166.754 45.4698C166.724 46.8898 165.514 47.9998 164.014 47.9698C162.584 47.9398 161.434 46.6998 161.494 45.2598C161.554 43.8698 162.844 42.5898 164.164 42.5998H164.174Z" fill="#EFEFEF"/>
<path d="M188.284 71.1897C184.864 71.1097 182.484 73.8097 182.634 77.1597C182.744 79.6697 184.654 82.3297 188.224 82.2497C191.504 82.1797 193.514 80.0197 193.814 76.9497C193.804 73.6897 191.424 71.2597 188.284 71.1897Z" fill="#EFEFEF"/>
<path d="M188.294 114.71C184.184 114.61 181.314 117.86 181.504 121.89C181.644 124.91 183.934 128.1 188.234 128.01C192.174 127.92 194.594 125.33 194.954 121.64C194.934 117.72 192.074 114.8 188.304 114.71H188.294Z" fill="#EFEFEF"/>
<path d="M258.974 43.3398C259.904 43.3598 260.664 42.6298 260.694 41.6798C260.724 40.7698 259.974 39.9998 259.034 39.9698C258.024 39.9398 257.374 40.5798 257.364 41.5998C257.364 42.6098 258.014 43.3098 258.974 43.3298V43.3398Z" fill="#EFEFEF"/>
<path d="M259.144 58.4297C258.224 58.3897 257.444 59.1697 257.454 60.1197C257.464 60.9897 258.204 61.7397 259.074 61.7497C259.974 61.7697 260.764 60.9697 260.774 60.0497C260.774 59.2297 260.014 58.4697 259.134 58.4297H259.144Z" fill="#EFEFEF"/>
<path d="M118.344 43.3398C119.274 43.3598 120.034 42.6298 120.064 41.6798C120.094 40.7698 119.344 39.9998 118.404 39.9698C117.394 39.9398 116.744 40.5798 116.734 41.5998C116.734 42.6098 117.384 43.3098 118.344 43.3298V43.3398Z" fill="#EFEFEF"/>
<path d="M118.504 58.4297C117.584 58.3897 116.804 59.1697 116.824 60.1197C116.834 60.9897 117.574 61.7397 118.444 61.7497C119.344 61.7697 120.134 60.9697 120.144 60.0497C120.144 59.2297 119.384 58.4697 118.504 58.4297Z" fill="#EFEFEF"/>
<path d="M175.504 41.3898C182.134 41.3698 188.754 41.3898 195.384 41.3898C197.504 41.3898 199.624 41.3998 201.744 41.3698C203.204 41.3498 203.714 40.8898 204.024 39.4098C203.804 39.1198 203.544 38.7798 203.244 38.3898C202.714 38.3598 202.314 38.3198 201.914 38.3198C192.814 38.3198 183.714 38.3298 174.604 38.3198C173.594 38.3198 173.034 38.7398 172.834 39.7198C173.254 41.0098 174.194 41.3998 175.484 41.3998L175.504 41.3898Z" fill="#EFEFEF"/>
<path d="M203.334 49.2298C202.914 48.9598 202.364 48.8098 201.854 48.7398C201.204 48.6598 200.534 48.7098 199.864 48.7098C191.674 48.7098 183.494 48.7098 175.304 48.7098C173.554 48.7098 172.874 49.5198 173.194 51.1698C173.744 51.8298 174.514 51.7698 175.264 51.7698C184.154 51.7698 193.054 51.7698 201.944 51.7698C202.164 51.7698 202.434 51.8498 202.604 51.7498C203.064 51.4798 203.644 51.2398 203.894 50.8198C204.244 50.2198 203.894 49.5698 203.334 49.2198V49.2298Z" fill="#EFEFEF"/>
<path d="M199.634 46.2895C200.374 46.2895 201.124 46.2895 201.894 46.2895C202.074 46.0795 202.254 45.8895 202.404 45.6695C202.524 45.4895 202.604 45.2795 202.674 45.1295C202.234 43.7195 201.844 43.4395 200.214 43.4395C193.574 43.4395 186.944 43.4495 180.304 43.4595C178.974 43.4595 177.644 43.4495 176.324 43.5095C175.154 43.5595 174.794 43.9095 174.414 45.1495C174.804 46.2295 175.694 46.3195 176.674 46.3195C184.334 46.2995 191.984 46.2995 199.644 46.2895H199.634Z" fill="#EFEFEF"/>
<text fill="#EFEFEF" xml:space="preserve" style="white-space: pre" font-family="JetBrains Mono" font-size="104.66" font-weight="bold" letter-spacing="0em"><tspan x="0.440704" y="228.178">GARAGE</tspan></text>
<text fill="#EFEFEF" xml:space="preserve" style="white-space: pre" font-family="JetBrains Mono" font-size="48" font-weight="bold" letter-spacing="0em"><tspan x="82.2861" y="274.94">V.PARROT</tspan></text>
</svg>
