<svg width="258" height="224" viewBox="0 0 258 224" fill="none" xmlns="http://www.w3.org/2000/svg">
<path d="M220.045 132.982C220.605 131.741 220.711 130.304 221.059 128.836C221.543 128.806 222.073 128.76 222.602 128.76C227.854 128.745 233.105 128.715 238.356 128.715C243.426 128.715 246.695 125.295 246.649 120.362C246.589 113.629 246.649 106.895 246.68 100.162C246.68 99.4503 246.755 98.7392 246.801 97.7405C248.102 97.7405 249.237 97.7253 250.372 97.7405C255.033 97.8313 257.636 93.6096 257.667 90.1747C257.712 84.1221 257.667 78.0543 257.667 72.0017C257.667 66.7813 255.518 64.6327 250.372 64.5873C249.192 64.5873 248.011 64.4813 246.68 64.4208C246.68 61.1373 246.786 58.111 246.634 55.0998C246.574 53.8136 246.165 52.4518 245.575 51.3018C244.304 48.8051 241.928 48.0939 239.31 48.0031C236.631 47.9123 233.952 47.8518 231.183 47.7761C230.139 44.2505 227.929 42.1018 224.615 41.2544V31.7367H230.335C231.622 19.9643 228.474 10.1288 218.168 3.95514C209.603 -1.18958 200.84 -0.357349 192.426 5.22619H180.94C172.949 -1.12906 161.841 -0.614585 154.305 5.25646C150.476 5.25646 146.632 5.25646 142.849 5.25646C134.147 -1.08366 123.886 -0.781032 115.85 5.25646H104.425C97.6146 -0.206033 86.6882 -1.43169 77.8351 5.22619H65.7586C65.2894 4.90843 64.9111 4.62093 64.5176 4.37883C56.8147 -0.37248 48.8998 -0.690242 41.0153 3.7433C34.8106 7.23869 30.9969 12.7163 29.0296 19.5406C27.8643 23.5808 28.3183 27.636 28.3637 31.9182H34.1144V41.2241C32.6465 42.1018 31.0726 42.707 29.9527 43.7965C28.848 44.8709 28.1972 46.4294 27.2438 47.9274C26.3358 47.9274 25.3218 47.9123 24.323 47.9274C22.2346 47.9728 20.1462 47.9274 18.0729 48.1241C15.0765 48.4116 12.7156 50.53 12.3978 53.4958C12.08 56.3557 12.1708 59.261 12.08 62.1511C12.0498 62.8623 12.0044 63.5734 11.959 64.4662C10.0975 64.557 8.43286 64.5873 6.76817 64.7234C3.36313 64.9958 0.83584 67.5379 0.790439 70.9122C0.714772 77.3129 0.593695 83.7135 0.805564 90.099C0.972033 95.0017 3.87767 98.0582 8.72039 97.7859C9.82514 97.7253 10.945 97.7859 12.307 97.7859C12.307 105.775 12.307 113.447 12.307 121.119C12.307 126.006 16.0753 128.896 20.1008 128.775C25.1403 128.624 30.1948 128.73 35.2494 128.715C36.0969 128.715 36.9444 128.715 37.8524 128.715C37.9281 129.259 38.0189 129.729 38.0643 130.183C38.5334 134.767 41.3028 137.264 45.9488 137.279C48.234 137.279 50.5343 137.279 52.8194 137.279C54.2117 137.279 55.604 137.279 57.1779 137.279C57.1779 137.99 57.1779 138.444 57.1779 138.898C57.1779 142.863 57.2081 146.842 57.2081 150.822C57.2081 161.596 57.2233 172.369 57.2081 183.143C57.2081 184.792 57.8135 185.988 59.2209 186.82C59.8565 187.198 60.477 187.607 61.1277 187.955C68.8156 191.98 76.5034 195.99 84.1912 200.015C95.4505 205.916 106.695 211.832 117.954 217.734C121.647 219.671 125.339 221.577 129.107 223.529C131.287 222.44 133.224 221.517 135.131 220.518C156.166 209.351 177.187 198.169 198.237 187.032C200.462 185.851 201.446 184.353 201.43 181.781C201.355 167.845 201.4 153.909 201.43 139.973C201.43 139.125 201.521 138.293 201.582 137.279H204.018C207.181 137.279 210.344 137.325 213.507 137.279C216.534 137.219 218.819 135.811 220.075 133.058L220.045 132.982ZM243.577 71.1543H250.72V82.4727H243.577V71.1543ZM231.395 106.154V104.262H239.809C239.839 104.928 239.87 105.442 239.9 106.154H231.395ZM231.395 101.902V99.8286H239.809V101.902H231.395ZM239.87 54.4945V97.7556H230.986C230.85 83.2596 230.911 68.93 230.895 54.4945H239.87ZM15.1219 82.276H7.97886V71.0787H15.1219V82.276ZM19.3592 54.4643H27.9248V97.7102H19.1625C18.4815 95.2438 18.6328 56.4465 19.3441 54.4643H19.3592ZM27.7129 106.229H19.1625V104.277H27.7129V106.229ZM19.1928 101.932V99.7984H27.8491C27.8794 100.479 27.9097 101.115 27.9399 101.932H19.1777H19.1928ZM219.818 106.683V103.309C220.211 103.445 220.468 103.536 220.892 103.687C221.21 103.112 221.528 102.507 222.088 101.508C222.39 102.34 222.617 102.915 222.89 103.672C223.177 103.46 223.419 103.279 223.904 102.931C224.131 104.202 224.327 105.337 224.57 106.683H219.818ZM219.167 18.4966C219.757 18.4966 220.362 18.4966 221.165 18.4966C221.286 19.1926 221.361 19.6314 221.422 19.9643C220.816 20.8117 213.613 20.6452 212.175 19.8433C212.19 18.8143 212.856 18.5268 213.749 18.5117C215.55 18.5117 217.366 18.5117 219.167 18.4966ZM196.058 26.5465C198.373 26.4558 200.492 26.0321 202.535 26.7887C204.851 27.6511 207.166 27.7117 209.421 26.8492C211.6 26.0169 213.734 26.4104 216.261 26.4104C212.266 31.5854 201.294 32.2511 196.058 26.5465ZM210.268 35.913V40.3616H202.354V35.913H210.268ZM157.574 26.4255C159.934 26.486 162.038 26.2439 164.247 26.8038C166.063 27.2577 168.182 27.4544 169.938 26.9551C172.359 26.2742 174.69 26.6071 177.171 26.3952C174.417 31.3281 162.522 32.584 157.574 26.4255ZM171.602 35.9281V40.407H163.536V35.9281H171.602ZM119.24 26.5012C121.526 26.5012 123.372 26.1683 125.279 26.834C127.534 27.6209 129.864 27.8479 132.164 26.8946C134.298 26.0018 136.477 26.4104 138.763 26.4709C136.19 31.1768 124.25 32.584 119.24 26.5163V26.5012ZM133.148 35.9432V40.3768H125.127V35.9432H133.148ZM81.0888 26.5768C83.2983 26.4709 85.2808 26.138 87.2936 26.8189C89.7906 27.6663 92.2119 27.5755 94.7846 26.8189C96.6461 26.2742 98.7194 26.4709 100.687 26.3347C100.717 26.5012 100.732 26.6676 100.762 26.8492C95.7683 32.0544 85.0538 31.6307 81.0888 26.5919V26.5768ZM94.8603 35.9432V40.3616H87.0666V35.9432H94.8603ZM42.6346 26.5163C42.6951 26.3498 42.7556 26.1683 42.8162 26.0018C45.2829 26.4255 47.7346 27.0308 50.2165 27.2275C52.1687 27.3788 54.242 27.288 56.1185 26.7887C58.0708 26.259 59.9019 26.3498 61.8693 26.4709C59.1301 31.7518 45.9791 32.3722 42.6346 26.5314V26.5163ZM56.0277 35.913V40.4978H48.0221V35.913H56.0277ZM59.0242 20.2216C59.2512 19.586 59.4328 19.0716 59.6144 18.5571H84.2063C84.4333 18.9656 84.7057 19.4498 85.1446 20.2216H59.0393H59.0242ZM59.463 15.0163H84.4031V16.6959H59.8868C59.796 16.3025 59.6598 15.788 59.4782 15.0163H59.463ZM98.1443 20.3123C98.0232 20.3123 97.9021 20.2216 97.5995 20.1156C97.7811 19.6012 97.9627 19.0867 98.1897 18.4512H103.275C108.98 18.4512 114.7 18.4512 120.406 18.4512C121.299 18.4512 122.343 18.2242 122.888 19.7222C122.252 19.9189 121.677 20.2367 121.102 20.2518C113.444 20.2972 105.787 20.2972 98.1292 20.2972L98.1443 20.3123ZM98.3108 14.8953H122.161V16.5295C121.147 16.6505 120.164 16.8472 119.195 16.8472C112.869 16.8926 106.559 16.8926 100.233 16.8775C98.4318 16.8775 98.2805 16.6808 98.3108 14.8801V14.8953ZM134.949 19.9038C135.221 19.4498 135.479 19.0262 135.721 18.6327C136.099 18.5874 136.356 18.5268 136.629 18.5268C143.817 18.5268 151.021 18.5268 158.209 18.5268C159.238 18.5268 160.252 18.5268 160.631 19.9795C158.345 20.5847 136.614 20.5393 134.949 19.9189V19.9038ZM135.237 15.4551C135.539 15.1828 135.66 14.9709 135.827 14.9406C136.356 14.865 136.886 14.8196 137.416 14.8196C144.135 14.8196 150.869 14.8196 157.589 14.8196C158.315 14.8196 159.042 14.8196 160.086 14.8196C159.95 15.6821 159.874 16.1814 159.783 16.7867H135.887C135.706 16.4084 135.464 15.9242 135.237 15.4551ZM172.949 20.04C173.07 19.6012 173.206 19.1623 173.343 18.663C173.842 18.6025 174.296 18.4966 174.75 18.4814C182.347 18.4814 189.959 18.4814 197.556 18.4814C198.495 18.4814 199.524 18.3604 199.478 19.813C197.92 20.4939 175.87 20.6755 172.964 20.04H172.949ZM173.449 14.9406H198.933C199.266 16.2722 198.752 16.8472 197.587 16.8926C196.648 16.938 195.71 16.9229 194.772 16.9229C188.522 16.9229 182.271 16.9077 176.021 16.8926C175.295 16.8926 174.569 16.8926 173.706 16.8926C173.6 16.1512 173.524 15.6064 173.449 14.9406ZM50.9883 7.10251C55.3921 6.64856 58.9636 8.52487 61.9903 11.536H80.5592C83.0864 10.0986 85.1295 8.57027 87.3995 7.7229C91.4099 6.22488 95.2538 7.1479 98.5529 9.78079C100.233 11.1124 101.928 11.6722 104.061 11.6268C109.101 11.5058 114.156 11.5814 119.104 11.5814C125.188 6.05843 132.301 5.16567 139.065 11.5209H157.089C159.042 10.3407 160.767 9.1604 162.583 8.20711C166.684 6.0433 170.785 6.5729 174.326 9.25119C176.763 11.0972 179.184 11.7176 182.12 11.6117C186.751 11.4604 191.397 11.5663 195.967 11.5663C204.185 5.28672 212.826 5.89198 217.941 13.3367H208.891C208.8 13.4578 208.71 13.5939 208.619 13.715C209.784 14.9406 209.951 16.363 209.557 17.7854C209.376 18.4512 208.891 19.1321 208.362 19.586C207.136 20.6301 204.457 20.4183 203.08 19.2834C201.536 17.9972 201.476 16.5143 202.868 13.8512C201.219 13.0795 171.875 13.0795 169.983 13.8966C171.179 16.7716 171.058 18.1031 169.559 19.2985C168.243 20.3577 166.018 20.5091 164.626 19.6314C162.901 18.542 162.719 17.392 163.854 13.5637C153.185 13.0492 142.622 13.4275 131.831 13.3216C132.936 15.8788 133.451 18.1939 130.802 19.8584C129.516 20.6604 127.382 20.4183 126.247 19.4498C124.794 18.2091 124.643 16.3933 125.778 13.7453C124.189 13.1854 97.3876 13.0341 94.028 13.6091C95.511 15.9545 96.0407 18.2545 93.1048 19.8281C91.4704 20.7058 89.6241 20.4183 88.4437 19.2229C87.0665 17.8308 87.006 16.363 88.3832 13.5183C77.4114 13.0492 66.5909 13.3972 55.9672 13.3518C56.1337 15.0466 56.4363 16.4689 56.3153 17.861C56.2547 18.5117 55.4527 19.1926 54.8322 19.6617C53.5156 20.6452 51.3818 20.5091 50.1257 19.4801C48.5367 18.1788 48.3551 16.6808 49.5657 13.4729H40.9699C40.9245 13.2762 40.8791 13.0643 40.8186 12.8676C43.4064 9.59921 46.766 7.52619 51.0034 7.08737L50.9883 7.10251ZM37.6405 18.6176H45.8278C46.0245 19.0867 46.2212 19.5406 46.3726 19.8887C45.8429 20.6755 38.5485 20.5998 37.0352 19.9341C37.2319 19.5104 37.4286 19.1018 37.6557 18.6025L37.6405 18.6176ZM39.7744 45.8393C42.3319 45.7787 44.8895 45.809 47.447 45.809C100.959 45.7636 154.471 45.7334 207.983 45.7031C211.752 45.7031 215.52 45.7636 219.288 45.8393C221.83 45.8847 223.858 47.4583 224.237 49.8491C161.175 49.9097 98.1594 49.955 35.0376 49.8945C35.5975 47.4583 37.5194 45.8847 39.7592 45.8241L39.7744 45.8393ZM75.8072 73.7116C75.0203 73.5754 74.2031 73.5603 73.401 73.5603C61.612 73.5603 49.8381 73.5603 38.0491 73.5603C36.9141 73.5603 35.7186 73.757 34.7954 72.3951L34.9014 70.8063C35.4159 70.5794 35.8245 70.2616 36.2482 70.2313C37.5195 70.1254 38.8058 70.08 40.077 70.0649C51.185 70.0195 62.293 69.9741 73.4161 69.9287C73.9458 69.9287 74.4755 69.853 74.9598 69.8228C75.8526 69.0511 76.4126 68.234 75.9434 67.1294C75.4743 66.0096 74.5057 65.5557 73.3405 65.5557C70.7224 65.5254 68.0892 65.5557 65.4559 65.5557C56.3001 65.5557 47.1444 65.5859 37.9735 65.5859C37.3681 65.5859 36.7477 65.6313 36.1574 65.4951C35.2948 65.2984 34.5835 64.678 34.8408 63.7853C35.0073 63.2557 35.7488 62.7866 36.339 62.5142C36.793 62.3024 37.3984 62.4537 37.9432 62.4537C50.0651 62.4386 62.1871 62.4537 74.309 62.3629C75.444 62.3629 76.7001 61.9998 77.6838 61.4096C78.2437 61.0767 78.728 59.8511 78.5313 59.2307C78.3345 58.5952 77.3508 58.111 76.6093 57.7932C76.0948 57.5662 75.4138 57.7327 74.8084 57.7327C62.5503 57.7327 50.2921 57.7327 38.034 57.7327C37.3076 57.7327 36.4601 57.8235 35.8699 57.5057C35.3251 57.2182 34.7954 56.4465 34.75 55.8564C34.7198 55.3873 35.3554 54.661 35.8699 54.434C36.5812 54.1314 37.4438 54.1162 38.2459 54.1162C51.8509 54.1162 65.4559 54.1011 79.0609 54.1616C80.4683 54.1616 81.8909 54.6912 83.8885 55.0998C86.0677 53.8893 88.9582 52.7695 92.2119 52.8452C95.4505 52.9208 98.4167 53.7985 101.171 55.7353C102.488 54.0557 104.258 54.0406 106.12 54.0406C119.785 54.0708 133.466 54.0406 147.131 54.0406C148.887 54.0406 150.627 54.1314 152.383 54.1011C154.229 54.0708 156.015 54.2221 157.422 55.5386C163.582 51.6347 169.665 52.0129 175.28 55.2662C177.02 54.8123 178.382 54.3886 179.774 54.1314C180.698 53.9649 181.651 54.0557 182.604 54.0557C194.863 54.0557 207.121 54.0557 219.379 54.0708C220.59 54.0708 221.8 54.1768 223.011 54.2978C223.904 54.3886 224.554 54.8425 224.6 55.811C224.645 56.855 223.995 57.4452 223.041 57.6116C222.39 57.7327 221.694 57.7024 221.028 57.7024C208.634 57.7024 196.24 57.6873 183.86 57.6721H181.696C181.242 58.0353 180.728 58.4438 180.274 58.807C180.153 60.5925 180.622 61.5156 182.105 62.03C182.968 62.3327 183.951 62.3932 184.874 62.3932C197.133 62.3932 209.391 62.3629 221.649 62.3629C222.602 62.3629 223.556 62.5748 224.797 62.7109C224.57 63.8004 224.418 64.5267 224.252 65.3741C223.132 65.4346 222.209 65.5254 221.286 65.5254C210.041 65.5254 198.797 65.5254 187.553 65.5254C186.751 65.5254 185.934 65.4951 185.132 65.5859C183.452 65.7675 182.831 66.4787 182.62 68.4609C183.588 69.8682 184.965 69.8379 186.312 69.8379C196.013 69.853 205.713 69.8682 215.399 69.8984C217.684 69.8984 219.969 69.959 222.269 70.0346C222.92 70.0497 223.571 70.2011 224.1 70.2616C224.963 72.3497 224.449 73.3182 222.542 73.4695C221.876 73.53 221.195 73.4997 220.529 73.4997C208.468 73.4997 196.421 73.4997 184.36 73.4997C183.512 73.4997 182.589 73.5754 181.817 73.8932C180.849 74.3017 180.228 75.1642 180.425 76.3293C180.622 77.4945 181.469 78.0089 182.544 78.1603C183.21 78.251 183.891 78.2056 184.557 78.2056C196.875 78.2056 209.209 78.2056 221.528 78.2056C222.496 78.2056 223.465 78.3872 224.327 78.4629C224.918 80.8839 224.418 81.5043 222.103 81.5043C214.218 81.5043 206.349 81.4892 198.464 81.4741C192.139 81.4741 185.798 81.5195 179.472 81.4741C178.306 81.4741 177.156 81.1412 175.613 80.8991C169.771 84.7879 163.536 84.3642 157.634 80.9445C155.894 81.1563 154.456 81.4589 153.034 81.4589C137.28 81.5043 121.51 81.5043 105.756 81.4741C104.319 81.4741 102.896 81.2168 100.868 81.0352C95.2992 84.6668 89.1096 84.5155 83.1318 80.8688C81.9212 81.0958 80.8921 81.4438 79.8782 81.4589C65.9402 81.5043 52.0022 81.5043 38.0643 81.5195C37.3984 81.5195 36.7023 81.5497 36.0667 81.3833C35.2343 81.1563 34.523 80.5208 34.8257 79.6129C35.0224 79.053 35.7034 78.5385 36.2936 78.2813C36.8082 78.0543 37.4892 78.2208 38.0945 78.2208C50.4889 78.2208 62.8832 78.2208 75.2624 78.2208C75.9283 78.2208 76.6093 78.2208 77.4114 78.2208C77.8503 77.5701 78.2891 76.9346 78.6069 76.4504C78.2891 74.6346 77.2298 73.9083 75.8072 73.6511V73.7116ZM38.6696 106.623H34.1447V102.265C35.5521 102.098 36.8233 101.932 37.8827 101.811C39.6836 103.415 38.6393 105.004 38.6545 106.638L38.6696 106.623ZM44.4052 98.9359C45.51 99.1326 46.2515 99.2688 47.2806 99.4503C46.9779 98.8451 46.8114 98.5273 46.5239 97.9675C47.2654 98.2701 47.7951 98.4819 48.6274 98.83V130.183H44.2841C44.0571 119.666 43.9663 109.331 44.4052 98.9359ZM73.8701 114.34C69.3906 109.815 64.8808 105.321 60.4165 100.782C59.6295 99.98 58.9939 99.0418 58.0556 97.8767H59.5841C59.796 98.3003 60.023 98.7543 60.3105 99.3444C60.9159 99.299 61.6574 99.4655 62.0509 99.178C63.3826 98.1944 64.3058 98.9813 65.1532 99.7681C69.5722 103.854 73.9458 108 78.3497 112.115C78.7885 112.524 79.2274 112.933 79.6663 113.356H81.8304C83.374 111.692 83.4496 110.935 82.012 109.331C79.5452 106.577 76.9876 103.914 74.4755 101.19C74.0366 100.706 73.6431 100.177 73.2345 99.6622C74.082 99.2536 74.8084 98.8905 75.7921 98.4063C76.231 98.5122 76.9876 98.6938 77.8048 98.8905C82.133 102.825 86.9152 106.411 90.0933 111.525C92.5449 115.46 94.9209 119.439 97.2817 123.434C104.304 135.297 111.31 147.16 118.317 159.038C119.271 160.642 120.164 162.277 121.041 163.85C118.711 165.545 116.547 167.119 114.231 168.798C113.217 167.043 112.188 165.197 111.129 163.366C107.043 156.254 103.002 149.112 98.8253 142.046C94.9511 135.479 89.3063 131.423 81.6034 130.47C80.6651 130.349 79.7571 130.137 78.8188 129.986C74.5966 129.275 71.4185 127.171 69.1334 123.449C67.9681 121.558 66.2731 119.969 64.6992 118.35C62.2325 115.808 59.5538 113.477 57.1627 110.86C54.6354 108.09 54.7414 108 55.5435 103.929C56.3001 104.489 57.0114 104.928 57.6168 105.488C61.9298 109.513 66.2428 113.538 70.5256 117.593C72.1449 119.121 73.5069 119.485 74.536 118.531C75.6256 117.517 75.3986 115.853 73.8399 114.294L73.8701 114.34ZM140.594 97.6194C145.119 99.9951 147.873 103.566 150.733 107.092C149.553 109.573 148.448 111.904 147.283 114.34C146.345 111.389 145.83 108.469 144.483 105.987C143.121 103.49 140.927 101.448 139.096 99.2082L139.217 98.951C139.913 99.2385 140.609 99.5109 141.577 99.9043C141.275 99.178 141.033 98.603 140.609 97.6043L140.594 97.6194ZM142.107 115.52C142.258 122.753 136.901 129.547 128.653 129.638C120.042 129.729 114.519 123.116 114.791 116.095C114.428 108.121 121.299 102.174 128.245 102.038C135.191 101.902 141.956 108.378 142.107 115.52ZM132.588 138.959C131.468 141.637 129.819 143.952 128.426 146.464C126.822 143.998 125.309 141.546 124.098 138.959H132.588ZM112.445 105.503C110.72 108.121 109.827 111.026 108.965 114.219C108.011 112.312 107.058 110.406 106.059 108.423C107.467 103.914 110.675 100.903 114.08 98.5424H118.559C118.635 98.6938 118.726 98.8451 118.802 98.9964C116.32 100.827 114.14 102.946 112.445 105.503ZM118.105 139.261C121.162 144.406 124.113 149.611 127.11 154.786C127.473 155.407 127.897 155.997 128.426 156.799C129.561 154.786 130.591 152.986 131.604 151.2C139.035 138.096 146.466 124.992 153.911 111.888C156.333 107.621 159.314 103.793 163.097 100.6C163.809 100.01 164.369 99.2385 165.05 98.5122H166.79C166.85 98.2701 166.926 98.028 167.047 97.574C167.562 98.2096 167.97 98.6938 168.273 99.0569C168.833 98.7694 169.393 98.4819 169.953 98.1944C170.044 98.3004 170.134 98.4063 170.21 98.5122C169.983 98.8602 169.786 99.2536 169.499 99.5563C164.005 105.17 159.617 111.54 155.848 118.425C148.418 131.998 140.745 145.42 133.178 158.902C132.422 160.249 131.741 161.626 130.999 163.033H125.96C124.174 159.901 122.403 156.738 120.557 153.621C115.2 144.527 109.797 135.463 104.425 126.369C101.973 122.208 99.5517 118.017 97.1455 113.81C94.028 108.348 89.9722 103.581 85.7348 98.7089C86.1131 98.3911 86.3704 98.1944 86.6428 97.9675C86.8396 98.2852 86.9909 98.5273 87.1725 98.8148C87.3844 98.5576 87.5508 98.3609 87.8081 98.0431C88.0654 98.3155 88.2924 98.5727 88.4891 98.7846C89.5182 98.8602 90.4867 98.9359 91.425 99.0115C95.2689 102.537 98.4318 106.502 101.065 110.905C106.725 120.362 112.445 129.789 118.075 139.261H118.105ZM68.3313 183.279C66.9541 182.523 65.7132 181.826 64.669 181.236V143.014C66.5001 144.028 66.485 145.829 67.6957 147.357C67.5595 146.54 67.4989 146.146 67.4081 145.541C67.7713 145.707 68.0437 145.844 68.3464 145.98V183.264L68.3313 183.279ZM76.0494 187.198C74.6268 186.411 73.3707 185.73 72.1752 185.08C71.6304 183.188 71.9482 155.195 72.3265 154.363V147.614C73.1286 147.886 73.9761 148.174 75.0052 148.537C74.869 148.764 74.7327 148.991 74.5209 149.369C74.9143 149.869 75.4138 150.519 76.0494 151.336V187.198ZM79.6057 189.377V149.263C80.7105 149.687 81.3764 149.929 82.133 150.217C83.2983 163.684 82.4206 177.09 82.7838 190.936C81.4369 190.285 80.4683 189.801 79.6057 189.377ZM78.2437 139.836C71.6607 138.989 66.6212 135.736 62.7016 130.425C60.4316 127.353 57.7529 124.599 55.1046 121.542V116.307C56.9811 117.926 58.5399 119.348 60.1894 120.665C63.2615 123.131 65.35 126.46 67.8621 129.411C70.0716 132.013 72.9016 133.602 76.3066 134.132C77.4265 134.298 78.5464 134.571 79.6663 134.767C86.2796 135.948 91.3493 139.413 94.8452 145.117C97.5844 149.581 100.202 154.136 102.836 158.66C105.635 163.487 108.405 168.329 111.129 173.065C110.266 175.32 109.479 177.378 108.723 179.375C106.286 175.078 103.804 170.705 101.322 166.332C97.9324 160.37 94.482 154.438 91.1375 148.461C88.2924 143.362 83.9642 140.578 78.2589 139.836H78.2437ZM96.8882 198.411C95.617 197.609 94.3458 196.807 93.014 195.974C93.1654 186.608 93.3167 177.423 93.468 167.89C94.6636 169.6 95.6473 171.023 96.979 172.929C97.1001 180.919 97.2363 189.498 97.3725 198.078C97.206 198.184 97.0395 198.29 96.8882 198.411ZM104.803 202.284C103.396 201.498 102.124 200.801 100.974 200.151V181.539C101.095 181.509 101.216 181.478 101.337 181.448C102.442 182.976 103.562 184.49 104.803 186.2V202.284ZM113.792 207.157C111.916 206.173 110.251 205.28 108.586 204.403V193.296C110.342 195.475 111.916 197.427 113.792 199.757V207.157ZM129.38 215.192C125.324 213.194 121.586 211.363 117.894 209.563V201.861C119.634 202.753 121.283 203.616 123.13 204.569C124.794 204.826 126.701 205.129 129.213 205.507C131.362 204.978 134.177 204.297 136.462 203.737C138.006 202.89 139.141 202.269 140.397 201.573C140.579 204.161 140.76 206.672 140.942 209.305C136.977 211.333 133.163 213.27 129.38 215.192ZM128.896 197.14C120.3 197.064 114.504 190.921 114.186 182.855C113.868 174.624 120.315 168.405 128.638 168.329C136.387 168.253 142.909 174.684 142.97 182.447C143.03 190.739 136.962 197.2 128.896 197.14ZM143.59 169.177C140.987 167.421 138.475 165.742 135.796 163.941C136.311 162.927 136.765 161.898 137.325 160.915C145.527 146.464 153.805 132.074 161.902 117.563C164.656 112.615 167.985 108.257 172.329 104.61C173.857 103.324 175.113 101.705 176.612 100.373C177.762 99.3444 179.093 98.5273 180.35 97.6043C180.486 97.7254 180.622 97.8464 180.758 97.9826C180.682 98.3609 180.607 98.724 180.516 99.2234H182.514C182.559 98.7997 182.604 98.4517 182.665 97.9221C182.937 98.2247 183.104 98.3457 183.164 98.5122C183.664 99.6319 182.831 100.283 182.211 100.948C180.017 103.309 177.762 105.624 175.582 108C174.69 108.968 173.918 110.058 173.04 111.147C173.6 111.994 174.024 112.645 174.432 113.265H177.02C182.06 108.469 187.084 103.687 192.154 98.8753C192.85 99.3747 193.274 99.6622 193.712 99.98C194.333 99.6471 194.968 99.299 195.695 98.8905C196.179 99.2385 196.633 99.5865 197.178 99.98C196.739 100.646 196.452 101.266 195.998 101.72C192.002 105.76 187.977 109.755 183.997 113.795C183.391 114.4 182.877 115.127 182.438 115.883C181.908 116.791 182.029 117.699 182.847 118.425C183.649 119.136 184.572 119.227 185.465 118.713C186.1 118.35 186.645 117.835 187.19 117.336C191.382 113.402 195.559 109.422 199.781 105.518C200.477 104.867 201.4 104.474 202.429 103.823C202.641 105.382 203.216 106.638 201.869 107.652C202.127 107.758 202.354 107.848 202.641 107.954C202.55 108.181 202.52 108.408 202.399 108.544C198.676 112.418 194.908 116.246 191.215 120.15C189.974 121.452 188.673 122.798 187.795 124.342C185.676 128.049 182.332 129.471 178.397 130.137C176.036 130.546 173.66 131.03 171.36 131.696C166.215 133.163 162.295 136.371 159.632 140.926C154.426 149.869 149.401 158.917 144.301 167.921C144.074 168.314 143.863 168.723 143.605 169.177H143.59ZM149.538 204.494C147.918 205.401 146.435 206.234 144.68 207.217V199.198C146.375 197.003 147.888 195.051 149.598 192.827C149.719 196.792 149.84 200.62 149.538 204.494ZM157.301 200.393C156.272 201.028 154.91 201.846 153.366 202.799V186.578C154.744 184.459 155.758 182.901 156.787 181.327C156.968 181.373 157.135 181.418 157.316 181.463V200.378L157.301 200.393ZM160.994 198.849C160.994 193.962 160.963 189.513 160.994 185.065C161.039 180.919 161.16 176.757 161.251 172.475C161.599 172.309 162.068 172.082 162.537 171.855C162.462 171.764 162.401 171.673 162.325 171.567C163.037 170.402 163.763 169.237 164.611 167.845C165.277 177.514 165.14 186.805 165.171 196.217C163.915 197.019 162.674 197.79 160.979 198.849H160.994ZM175.673 190.8C175.34 177.65 175.704 164.925 176.052 152.154C176.46 151.866 176.854 151.579 177.368 151.215C176.869 151.034 176.566 150.928 176.248 150.822C176.218 150.686 176.188 150.534 176.142 150.398C176.899 150.035 177.656 149.672 178.897 149.067C179.033 162.519 179.169 175.486 179.305 188.621C178.17 189.301 177.111 189.937 175.673 190.8ZM182.271 187.259C182.453 174.836 182.62 162.897 182.786 151.064C183.225 150.746 183.512 150.519 184.163 150.035C183.739 149.611 183.437 149.309 183.013 148.87C183.86 148.522 184.905 148.083 186.342 147.478C186.569 160.007 186.796 172.415 187.023 184.838C185.51 185.609 184.148 186.305 182.271 187.259ZM193.924 180.934C192.88 181.554 191.639 182.296 190.035 183.264C190.035 182.084 190.035 181.297 190.035 180.525C190.065 170.508 190.08 160.491 190.111 150.474C190.111 149.49 190.126 148.507 190.111 147.523C190.095 146.449 190.398 145.586 191.321 144.921C192.123 144.346 192.82 143.634 193.939 142.651V180.934H193.924ZM201.945 122.723C200.341 124.508 198.737 126.309 197.178 128.155C195.876 129.698 194.651 131.287 193.395 132.876C190.353 136.734 186.252 138.611 181.53 139.443C179.563 139.791 177.55 140.154 175.673 140.805C170.785 142.484 167.864 146.237 165.473 150.61C160.298 160.113 155.001 169.57 149.75 179.027C149.492 179.481 149.174 179.905 148.751 180.54C147.964 178.074 147.268 175.91 146.541 173.686C150.007 167.467 153.472 161.157 156.998 154.892C158.845 151.609 160.721 148.34 162.674 145.117C166.306 139.065 171.769 135.751 178.67 134.783C184.572 133.965 189.263 131.469 192.562 126.263C195.074 122.299 198.964 119.545 202.838 116.14C203.095 118.728 203.64 120.831 201.945 122.723ZM43.1491 90.8556C40.6218 90.8556 38.1551 90.7497 36.0969 89.0096C35.3705 88.3892 34.629 87.7688 35.0678 86.2859C35.8245 86.2102 36.7023 86.0287 37.5951 86.0287C54.8322 86.0135 72.0693 85.9984 89.3063 86.0135C130.863 86.0135 172.404 86.0135 213.961 86.0438C216.655 86.0438 219.349 86.0892 222.042 86.1497C222.829 86.1648 223.601 86.301 224.373 86.3767C224.161 88.5102 222.981 89.8721 220.862 90.4319C219.833 90.7043 218.743 90.8556 217.684 90.8556C159.496 90.8556 101.322 90.8556 43.134 90.8556H43.1491ZM209.784 98.0734C210.102 98.3609 210.359 98.603 210.889 99.0872C211.146 98.5878 211.388 98.1036 211.63 97.6497C212.538 98.0582 213.159 98.3457 213.976 98.7089C214.067 109.089 214.143 119.56 213.855 130.183H209.86C209.118 127.595 209.058 104.368 209.769 98.0734H209.784Z" fill="#EFEFEF"/>
<path d="M166.336 78.6744C172.48 78.7047 177.263 74.2409 177.308 68.4455C177.353 62.8014 172.374 57.7778 166.488 57.8988C160.843 58.0199 155.955 62.06 155.955 68.6271C155.955 74.1198 161.554 79.0376 166.351 78.6744H166.336ZM166.215 64.3903C168.561 64.0876 169.938 65.3133 170.74 68.4153C170.014 71.26 168.5 72.5462 166.215 72.2435C164.339 72.0014 162.719 70.2462 162.674 68.4153C162.628 66.4935 164.263 64.6324 166.2 64.3903H166.215Z" fill="#EFEFEF"/>
<path d="M92.2122 78.7507C97.1911 78.5843 102.715 74.6652 102.654 68.779C102.579 62.8475 98.4774 57.9751 92.2273 58.0962C86.2495 58.0962 81.4522 62.8021 81.4976 68.5975C81.543 73.9692 86.6128 78.9323 92.2122 78.7507ZM92.0608 64.1942C94.1644 64.2245 96.0107 66.2823 95.9653 68.5369C95.9199 70.6856 94.0887 72.3652 91.8187 72.3198C89.6546 72.2744 87.9142 70.3981 88.005 68.2192C88.0958 66.1159 90.0481 64.1791 92.0457 64.1942H92.0608Z" fill="#EFEFEF"/>
<path d="M128.548 107.455C123.372 107.334 119.77 111.42 119.997 116.489C120.164 120.287 123.054 124.312 128.457 124.191C133.421 124.085 136.463 120.816 136.917 116.171C136.902 111.238 133.3 107.561 128.548 107.455Z" fill="#EFEFEF"/>
<path d="M128.563 173.308C122.343 173.156 118 178.074 118.287 184.172C118.499 188.742 121.965 193.569 128.472 193.433C134.435 193.296 138.097 189.377 138.642 183.794C138.611 177.862 134.283 173.444 128.578 173.308H128.563Z" fill="#EFEFEF"/>
<path d="M235.526 65.3138C236.933 65.3441 238.084 64.2395 238.129 62.802C238.174 61.425 237.039 60.2599 235.617 60.2145C234.088 60.1691 233.105 61.1375 233.09 62.6809C233.09 64.2092 234.073 65.2684 235.526 65.2987V65.3138Z" fill="#EFEFEF"/>
<path d="M235.784 88.1472C234.392 88.0867 233.211 89.267 233.226 90.7045C233.242 92.0209 234.361 93.1558 235.678 93.1709C237.04 93.2012 238.236 91.9906 238.251 90.5985C238.251 89.3578 237.101 88.2078 235.769 88.1472H235.784Z" fill="#EFEFEF"/>
<path d="M22.7038 65.3138C24.1112 65.3441 25.2614 64.2395 25.3068 62.802C25.3522 61.425 24.2172 60.2599 22.7946 60.2145C21.2661 60.1691 20.2825 61.1375 20.2673 62.6809C20.2673 64.2092 21.251 65.2684 22.7038 65.2987V65.3138Z" fill="#EFEFEF"/>
<path d="M22.9461 88.1472C21.5538 88.0867 20.3734 89.267 20.4036 90.7045C20.4188 92.0209 21.5387 93.1558 22.8553 93.1709C24.2173 93.2012 25.4128 91.9906 25.428 90.5985C25.428 89.3578 24.2778 88.2078 22.9461 88.1472Z" fill="#EFEFEF"/>
<path d="M109.207 62.3633C119.24 62.333 129.259 62.3633 139.292 62.3633C142.501 62.3633 145.709 62.3784 148.917 62.333C151.127 62.3027 151.899 61.6067 152.368 59.3672C152.035 58.9284 151.641 58.4139 151.187 57.8238C150.385 57.7784 149.78 57.7179 149.174 57.7179C135.403 57.7179 121.632 57.733 107.845 57.7179C106.316 57.7179 105.469 58.3534 105.166 59.8363C105.802 61.7883 107.224 62.3784 109.177 62.3784L109.207 62.3633Z" fill="#EFEFEF"/>
<path d="M151.324 74.2263C150.688 73.8178 149.856 73.5908 149.084 73.4849C148.1 73.3638 147.087 73.4395 146.073 73.4395C133.678 73.4395 121.299 73.4395 108.905 73.4395C106.256 73.4395 105.227 74.6651 105.711 77.1619C106.544 78.1605 107.709 78.0697 108.844 78.0697C122.298 78.0697 135.767 78.0697 149.22 78.0697C149.553 78.0697 149.962 78.1908 150.219 78.0395C150.915 77.6309 151.793 77.2678 152.171 76.6322C152.701 75.7244 152.171 74.7408 151.324 74.2112V74.2263Z" fill="#EFEFEF"/>
<path d="M145.724 69.7772C146.844 69.7772 147.979 69.7772 149.144 69.7772C149.417 69.4594 149.689 69.1719 149.916 68.839C150.098 68.5666 150.219 68.2489 150.325 68.0219C149.659 65.8884 149.069 65.4647 146.602 65.4647C136.553 65.4647 126.52 65.4798 116.471 65.4949C114.458 65.4949 112.446 65.4798 110.448 65.5706C108.678 65.6463 108.133 66.1759 107.558 68.0522C108.148 69.6864 109.495 69.8226 110.978 69.8226C122.57 69.7923 134.147 69.7923 145.739 69.7772H145.724Z" fill="#EFEFEF"/>
</svg>
