<?xml version="1.0" encoding="utf-8"?>
<!-- Generator: Adobe Illustrator 27.9.0, SVG Export Plug-In . SVG Version: 6.00 Build 0)  -->
<svg version="1.1" id="Capa_1" xmlns="http://www.w3.org/2000/svg" xmlns:xlink="http://www.w3.org/1999/xlink" x="0px" y="0px"
	 viewBox="0 0 512 512" style="enable-background:new 0 0 512 512;" xml:space="preserve">
<style type="text/css">
	.st0{fill:#AAAAAA;}
</style>
<g>
	<path class="st0" d="M118.7,195.6c-21,0-38,17-38,38v44.8c0,21,17,38,38,38c21,0,38-17,38-38v-44.8
		C156.7,212.7,139.6,195.6,118.7,195.6z M136.7,278.4c0,9.9-8.1,18-18,18c-9.9,0-18-8.1-18-18v-44.8c0-9.9,8.1-18,18-18
		c9.9,0,18,8.1,18,18V278.4z"/>
	<path class="st0" d="M256,195.6c-21,0-38,17-38,38v44.8c0,21,17,38,38,38s38-17,38-38v-44.8C294,212.7,277,195.6,256,195.6z
		 M274,278.4c0,9.9-8.1,18-18,18s-18-8.1-18-18v-44.8c0-9.9,8.1-18,18-18c9.9,0,18,8.1,18,18V278.4z"/>
	<g>
		<path d="M460.6,73.2H52.4c-29.1,0-52.6,23.5-52.6,52.6v258.8c0,29,23.5,52.6,52.6,52.6h408.2c29,0,52.6-23.5,52.6-52.6V125.8
			C513.2,96.7,489.7,73.2,460.6,73.2z M376.6,134h33.5c0.8,2.1,1.2,4.3,1.2,6.6c0,9.9-8.1,18-18,18c-9.9,0-18-8.1-18-18
			C375.3,138.3,375.8,136.1,376.6,134z M177.3,378H60V134h117.3V378z M314.7,378H197.3V134h117.3V378z M410.1,378h-33.5
			c-0.8-2.1-1.2-4.3-1.2-6.6c0-9.9,8.1-18,18-18c9.9,0,18,8.1,18,18C411.3,373.7,410.9,375.9,410.1,378z M380.7,320.8
			c0-7,5.7-12.7,12.7-12.7c7,0,12.7,5.7,12.7,12.7c0,7-5.7,12.7-12.7,12.7C386.4,333.4,380.7,327.7,380.7,320.8z M452,378h-21.2
			c0.4-2.2,0.6-4.3,0.6-6.6c0-11.6-5.3-22.1-13.5-29c5.1-5.8,8.2-13.3,8.2-21.6c0-18-14.6-32.7-32.7-32.7c-18,0-32.7,14.7-32.7,32.7
			c0,8.3,3.1,15.8,8.2,21.6c-8.3,7-13.5,17.4-13.5,29c0,2.2,0.2,4.4,0.6,6.6h-21.2V134h21.2c-0.4,2.2-0.6,4.3-0.6,6.6
			c0,21,17,38,38,38c21,0,38-17,38-38c0-2.2-0.2-4.4-0.6-6.6H452V378z"/>
		<path d="M256,195.6c-21,0-38,17-38,38v44.8c0,21,17,38,38,38s38-17,38-38v-44.8C294,212.7,277,195.6,256,195.6z M274,278.4
			c0,9.9-8.1,18-18,18s-18-8.1-18-18v-44.8c0-9.9,8.1-18,18-18c9.9,0,18,8.1,18,18V278.4z"/>
		<path d="M118.7,195.6c-21,0-38,17-38,38v44.8c0,21,17,38,38,38c21,0,38-17,38-38v-44.8C156.7,212.7,139.6,195.6,118.7,195.6z
			 M136.7,278.4c0,9.9-8.1,18-18,18c-9.9,0-18-8.1-18-18v-44.8c0-9.9,8.1-18,18-18c9.9,0,18,8.1,18,18V278.4z"/>
	</g>
</g>
</svg>
