<?xml version="1.0" encoding="UTF-8"?>
<svg xmlns="http://www.w3.org/2000/svg" id="Icons" viewBox="0 0 60 60" width="512" height="512"><ellipse cx="30" cy="23" rx="13" ry="7"/><path d="M2.194,50a35.176,35.176,0,0,1,5.787-.544,25.959,25.959,0,0,1,2.986.2L7.379,46.776l.006-.008A.984.984,0,0,1,7,46l0-4.975a35.026,35.026,0,0,0-4.86.577.138.138,0,0,0-.122.093.192.192,0,0,0,.026.187l1.87,2.52a1,1,0,0,1,.1,1.016L2.029,49.723a.183.183,0,0,0,.009.21A.151.151,0,0,0,2.194,50Z"/><path d="M13.284,29.981a1.042,1.042,0,0,0,.84.78l2.874.51a3.117,3.117,0,0,1,1.684.911l2.1,2.234a1.051,1.051,0,0,0,.991.318l2.944-.621a3.066,3.066,0,0,1,.626-.065,3.1,3.1,0,0,1,1.457.365l2.688,1.464a1.1,1.1,0,0,0,1.026-.005l2.67-1.454a3.1,3.1,0,0,1,2.091-.3l2.949.622a1.037,1.037,0,0,0,.973-.3l2.118-2.248A3.1,3.1,0,0,1,43,31.271l2.874-.51a1.056,1.056,0,0,0,.837-.778l.75-2.992a2.935,2.935,0,0,1,.58-1.169l1.731-2.176a1.045,1.045,0,0,0,0-1.293l-1.741-2.189a2.931,2.931,0,0,1-.568-1.152l-.749-2.993a1.042,1.042,0,0,0-.84-.78L43,14.729a3.117,3.117,0,0,1-1.684-.911l-2.1-2.234a1.051,1.051,0,0,0-.991-.318l-2.944.621a3.087,3.087,0,0,1-2.083-.3l-2.688-1.464a1.1,1.1,0,0,0-1.026.005l-2.67,1.454a3.1,3.1,0,0,1-2.091.3l-2.949-.622a1.037,1.037,0,0,0-.973.3l-2.118,2.248A3.1,3.1,0,0,1,17,14.729l-2.874.51a1.056,1.056,0,0,0-.837.778l-.75,2.992a2.935,2.935,0,0,1-.58,1.169l-1.733,2.179a1.042,1.042,0,0,0,0,1.29l1.741,2.189a2.931,2.931,0,0,1,.568,1.152ZM30,14c8.411,0,15,3.953,15,9s-6.589,9-15,9-15-3.953-15-9S21.589,14,30,14Z"/><path d="M13.921,48.913l.065-4.669a21.828,21.828,0,0,0-2.566.7,8.2,8.2,0,0,0-1.969.931l4.359,3.493A1.019,1.019,0,0,0,13.921,48.913Z"/><path d="M46.014,44.249l.065,4.65a1.062,1.062,0,0,0,.111.469l4.355-3.49A13.065,13.065,0,0,0,46.014,44.249Z"/><path d="M51,32.12a1.044,1.044,0,0,0-.593-.919c-.166-.082-.346-.175-.536-.272-.353-.182-.742-.379-1.186-.579l-.03.118a3.058,3.058,0,0,1-2.424,2.261l-2.87.51a1.093,1.093,0,0,0-.586.314l-2.106,2.234a3.039,3.039,0,0,1-2.849.906l-2.953-.623a1.093,1.093,0,0,0-.731.109l-2.671,1.454A3.131,3.131,0,0,1,30,38a3.084,3.084,0,0,1-1.452-.362l-2.69-1.464a1.087,1.087,0,0,0-.722-.1l-2.948.622a3.069,3.069,0,0,1-2.859-.91l-2.1-2.229a1.1,1.1,0,0,0-.589-.316l-2.865-.508a3.054,3.054,0,0,1-2.428-2.263l-.028-.112c-.454.205-.85.4-1.21.587l-.525.266a1.031,1.031,0,0,0-.571.913L9,43.811a12.213,12.213,0,0,1,1.759-.755C14.662,41.691,21.136,41,30,41c12.778,0,18.472,1.447,21,2.8Z"/><path d="M57.809,50a.142.142,0,0,0,.153-.064.171.171,0,0,0,.017-.192l-2-4.324a1,1,0,0,1,.1-1.016l1.869-2.519a.192.192,0,0,0,.027-.188.131.131,0,0,0-.108-.091A35.214,35.214,0,0,0,53,41.024V46a.985.985,0,0,1-.385.769l.006.007-3.588,2.876a25.974,25.974,0,0,1,2.986-.2A35.25,35.25,0,0,1,57.809,50Z"/></svg>
